<?xml version="1.0" encoding="UTF-8"?>
<svg id="Layer_1" xmlns="http://www.w3.org/2000/svg" xmlns:xlink="http://www.w3.org/1999/xlink" version="1.1" viewBox="0 0 4000 4000">
  <!-- Generator: Adobe Illustrator 29.5.1, SVG Export Plug-In . SVG Version: 2.1.0 Build 141)  -->
  <defs>
    <style>
      .st0 {
        fill: none;
      }

      .st1 {
        fill: #ab5689;
      }

      .st2 {
        fill: #81a655;
      }

      .st3 {
        fill: #a76a5e;
      }

      .st4 {
        fill: #4e2e35;
      }

      .st5 {
        fill: #ad5d8e;
      }

      .st6 {
        fill: #7f305c;
      }

      .st7 {
        fill: #381a35;
      }

      .st8 {
        fill: #aa578c;
      }

      .st9 {
        fill: #a65485;
      }

      .st10 {
        fill: #44203e;
      }

      .st11 {
        fill: #3a1a37;
      }

      .st12 {
        fill: #662c52;
      }

      .st13 {
        fill: #a85588;
      }

      .st14 {
        fill: #739453;
      }

      .st15 {
        fill: #97bc4f;
      }

      .st16 {
        fill: #652b51;
      }

      .st17 {
        fill: #b25d8f;
      }

      .st18 {
        fill: #512446;
      }

      .st19 {
        fill: #ac5a88;
      }

      .st20 {
        fill: #ae588f;
      }

      .st21 {
        fill: #47213f;
      }

      .st22 {
        fill: #d3a3bc;
      }

      .st23 {
        fill: #84b04b;
      }

      .st24 {
        fill: #9bbe50;
      }

      .st25 {
        fill: #a45587;
      }

      .st26 {
        fill: #cd9bb7;
      }

      .st27 {
        fill: #82a655;
      }

      .st28 {
        fill: #779b51;
      }

      .st29 {
        fill: #ae5c8f;
      }

      .st30 {
        fill: #643a3d;
      }

      .st31 {
        fill: #6a8c4e;
      }

      .st32 {
        fill: #462a31;
      }

      .st33 {
        fill: #aa5389;
      }

      .st34 {
        fill: #ac548c;
      }

      .st35 {
        fill: #b45992;
      }

      .st36 {
        fill: #d5b0c5;
      }

      .st37 {
        fill: #f2d7c5;
      }

      .st38 {
        fill: #a45487;
      }

      .st39 {
        fill: #a34870;
      }

      .st40 {
        fill: #522447;
      }

      .st41 {
        fill: #d6acc1;
      }

      .st42 {
        fill: #607f4a;
      }

      .st43 {
        fill: #a45486;
      }

      .st44 {
        fill: #82b149;
      }

      .st45 {
        fill: #4c2342;
      }

      .st46 {
        fill: #747f53;
      }

      .st47 {
        fill: #bb6c9d;
      }

      .st48 {
        clip-path: url(#clippath);
      }

      .st49 {
        fill: #80b048;
      }

      .st50 {
        fill: #748f4e;
      }

      .st51 {
        fill: #ae638d;
      }
    </style>
    <clipPath id="clippath">
      <rect class="st0" width="4000" height="4000"/>
    </clipPath>
  </defs>
  <g class="st48">
    <g>
      <path class="st40" d="M1297.1,3452.74c-305.4-227.69-499.78-527.8-579.36-899.94-114.68-536.32,162.2-1030.22,668.67-1198.8,3.65-1.22,7.49-1.88,11.25-2.8-2.38,14.4-4.76,28.79-7.14,43.19-136.34,48.83-249.51,129.96-332.7,248.62-127.09,181.28-144.01,386.74-124.23,599.17,1.25,17.42,1.62,34.95,3.89,52.23,45.38,345.85,178.7,650.09,433.21,893.6,182.68,174.79,397.89,276.82,656.7,269.08-25.86,1.73-44.86,13.6-63.4,32.58-32.15,32.93-71.85,56.39-113.44,76.82-66.76,32.79-139.21,45.61-210.3,63.44-123.1-42.19-235.76-104.58-343.15-177.19Z"/>
      <path class="st21" d="M3264.95,1726.7c107.72,213.02,127.69,439.89,104.05,672.95-15.21,149.92-47.66,296.05-107.31,435.24-27.85-5.04-61.57-64.84-76.47-22.42-25.49,72.58-73.2,118.8-125.4,166.18-33.96,30.82-67.47,44.55-106.44,5.8-9.64-9.58-15.79-39.17-34.42-24.02-20.92,17.01-39.79,18.61-62.53,13.07-11.85-2.89-16.81,2.67-19.29,12.98-2.63,10.89,2.14,21.01,12.04,20.21,33.86-2.75,65.93,2.11,99.49,7.8,39.23,6.66,69.08,13.11,70.68,58.98,1.5,43.08-40.87,57.41-62.68,55.29-43.52-4.22-64.74-51.88-97.01-79.32-14.79-12.57-27.11-17.64-42.4-11.25-12.01,5.02-12.86,19.42-4.89,28.41,21.05,23.76,3.19,37.11-13.88,44.64-31.6,13.95-64.47,11.77-95.29-5.77,53.77-66.09,102.99-135.46,142.29-211.09,158.52-305.05,188.2-626.92,123.25-960.78,4.19-4.2,7.64-10.52,12.68-12.26,50.11-17.29,93.11-44.13,86.7-103.73-3.49-32.47-4.59-67.34,20.54-80.18,31.11-15.89,71.15-14.54,107.49-19.5,3.15-.43,6.95,10.45,11.32,11.23,19.15,3.44,39.86,29.22,57.47-2.47Z"/>
      <path class="st15" d="M1792.86,948.26c-219.06,205.43-644.94,127.57-835.48-180.6-85.03-137.52-198.96-248.42-348.67-317.42-6.79-3.13-15.51-5.74-2.97-13.22,156.99-93.64,306.2-205.59,499.02-216.02,107.44-5.81,210.37,14.96,309.29,56.68-8.49,15.38-35.06.36-39.08,23.24-27.26-8.82-27.86,4.22-23.83,26.07,3.6,19.49,14.22,39.11,4.32,59.77-3.37-3.82-6.5-7.89-10.15-11.4-7.33-7.04-14.95-13.78-22.45-20.65,3.38,8.73,6.59,17.54,10.16,26.19,21.77,52.75,43.63,105.47,65.46,158.2-61.49-35.01-124.74-65.62-195.2-78.27-6.57-2.58-13.13-5.17-19.7-7.75-31.79-60.64-78.21-102.2-147.97-113.03-3.55-.55-7.55,1.72-11.33,2.68,3.36,1.62,6.59,3.61,10.1,4.8,55.18,18.72,100.82,49.54,129.69,101.76-25.51-3.51-50.96-7.55-76.56-10.28-11.7-1.25-23.67.1-35.52.27,10.56,2.15,21.16,4.1,31.66,6.48,33.34,7.57,66.64,15.3,99.95,22.97,27.27,10.5,54.53,21,81.8,31.5-91.97,36.68-187.28,65.53-273.19,116.41-2.95,1.75-5.45,4.25-8.16,6.39,3.62-.34,7.56.12,10.83-1.14,52-20.02,103.87-40.39,155.9-60.33,8.54-3.27,17.7-4.92,26.58-7.32-6.82,4.39-13.96,8.37-20.4,13.26-17.51,13.31-34.82,26.88-51.95,40.68-3.32,2.67-5.42,6.85-8.08,10.33,4.55-1.54,9.6-2.27,13.56-4.75,63.16-39.59,124.73-82.64,202.11-90.41,55.86,33.96,111.73,67.92,167.59,101.89-93.46,40.02-186.93,80.03-280.38,120.07-3.26,1.4-6.4,3.1-9.59,4.66,4,.03,8.35,1.12,11.95-.07,40.5-13.3,81.53-25.33,121.17-40.89,61.54-24.16,122.83-48.59,188.22-60.54,24.85,19.49,49.7,38.98,74.55,58.47,1.8,31.15-9.62,58.88-24.5,84.83-58.07,101.32-191.12,165.01-306.81,147.95-2.93-.43-5.97-.07-8.96-.08,1.57,1.76,2.81,4.36,4.77,5.16,181.4,74.08,362.18,134.72,531.47-27.29,3.6,10.25,7.2,20.49,10.8,30.74Z"/>
      <path class="st10" d="M2703.2,3105.49c30.83,17.54,63.69,19.72,95.29,5.77,17.07-7.53,34.93-20.88,13.88-44.64-7.96-8.99-7.12-23.38,4.89-28.41,15.29-6.39,27.62-1.33,42.4,11.25,32.26,27.44,53.48,75.1,97.01,79.32,21.81,2.11,64.18-12.21,62.68-55.29-1.6-45.87-31.45-52.33-70.68-58.98-33.56-5.69-65.62-10.56-99.49-7.8-9.9.8-14.67-9.31-12.04-20.21,2.49-10.31,7.44-15.87,19.29-12.98,22.74,5.54,41.61,3.95,62.53-13.07,18.64-15.16,24.78,14.44,34.42,24.02,38.98,38.75,72.48,25.03,106.44-5.8,52.2-47.38,99.91-93.6,125.4-166.18,14.9-42.42,48.62,17.38,76.47,22.42-3.9,9.46-7.8,18.93-11.69,28.39-7.71-.3-15.41-.6-23.12-.9,5.1,6.44,10.19,12.87,15.29,19.31-5.4,12.06-10.79,24.11-16.19,36.17-9.42-12.63-23.3-16.35-35.82-9.7-22.1,11.76-20.24,33.72-20.46,55.61-.26,25.3,24.42-2.51,26.3,14.28-18.66,32.05-37.32,64.1-55.98,96.15-35.08-9.1-70.71-2.62-77.73,33.71-5.65,29.23-37.95,57.85-11.47,91.38-74.86,94.67-163.35,175.2-258.28,249.06-137.77,92.32-287.35,158.33-447.05,202.5-237.38,65.67-472.77,74.62-705.23-20.93,71.09-17.83,143.54-30.65,210.3-63.44,41.59-20.43,81.29-43.89,113.44-76.82,18.54-18.99,37.54-30.85,63.4-32.59,278.62-14.66,496.65-145.78,675.81-351.61ZM2873.98,3087.52c-5.99,3.54-10.57,6.24-15.16,8.95,4.15,2.19,8.42,6.3,12.43,6.07,4.88-.28,9.56-4.23,14.32-6.59-3.6-2.62-7.2-5.24-11.59-8.43Z"/>
      <path class="st45" d="M3264.95,1726.7c-17.61,31.69-38.32,5.91-57.47,2.47-4.37-.78-8.17-11.66-11.32-11.23-36.34,4.96-76.38,3.61-107.49,19.5-25.14,12.84-24.03,47.72-20.54,80.18,6.4,59.59-36.59,86.43-86.7,103.73-5.04,1.74-8.49,8.06-12.68,12.26-56.04-211.42-152.82-396.88-335.93-527.35-13.07-18.34,13.51-58.25-27.98-59.3-37.36-.94-57.05-29.14-63.47-51.99-4.99-17.75,32.31-20.83,53.14-25.39,4.67-1.02,9.47-1.49,14.2-2.22-3.52-2.57-6.74-5.78-10.61-7.61-31.55-14.9-40.08-56.86-76.96-65.47-.01,0,.22-2.3.56-2.37,2.54-.48,5.14-.67,7.73-.95,239.16,39.75,441.84,145.2,599.05,332.57,11.32,37.12,37.83,62.31,67.01,85.42,2.69,4,5.37,8,8.06,12,2.13,18.62,11.6,32.58,27.12,42.69,1.47,2.64,2.93,5.27,4.4,7.91-8.23,13.19-5.1,20.15,10.98,19.99,1.41,2.52,2.81,5.04,4.22,7.56-10.95,15.66,2.39,18.57,12.24,23.32.82,1.43,1.63,2.85,2.45,4.28Z"/>
      <path class="st4" d="M1792.86,948.26c-3.6-10.25-7.2-20.49-10.8-30.74-1.42-3.86-2.85-7.72-4.27-11.58-4.15-20.92-8.31-41.84-12.46-62.77,52.97,15.91,124.81-31.32,157.36-103.46,27.72-61.44,8.06-117.27-55.42-157.32,40.19-39.9,73.26-3.43,107.07,11.38,48.54,21.28,66.12,61.06,54.74,111.89-4.31,19.24-10.81,41.55-24.06,54.61-52.55,51.81-50.5,110.26-37.83,177.25,15.54,82.19,19.81,166.52,28.96,249.92,0,24.78.02,49.57.03,74.35-.03,37.73-.05,75.47-.07,113.21-11.45,6.95-17.2-31.83-31.27-3.89-1.29-4.18-3.4-8.29-3.76-12.55-11.85-143.38-23.51-286.77-35.36-430.15-.37-4.51,2.78-15.34-7.7-9.84-38.1,19.99-75.58,41.17-113.3,61.9-3.95-10.73-7.91-21.47-11.86-32.2Z"/>
      <path class="st18" d="M1996.17,1261.8c0-24.78-.02-49.57-.03-74.35,174.1-21.8,348.19-27.77,522.26.27,3.75.6,7.34,2.14,11.01,3.25-2.58.28-5.18.47-7.72.95-.34.06-.57,2.37-.56,2.37,36.88,8.61,45.41,50.57,76.96,65.47,3.87,1.83,7.09,5.04,10.61,7.61-4.74.72-9.53,1.19-14.2,2.22-20.82,4.56-58.12,7.63-53.14,25.39,6.42,22.86,26.11,51.05,63.47,51.99,41.49,1.05,14.9,40.96,27.98,59.3-24.4-14.79-48.29-30.52-73.29-44.22-163.45-89.59-341.2-127.37-524.82-142.84-11.03-.93-28.02-16.62-33.83,5.61-2.51,9.62,1.25,29.73,5.51,30.72,16.7,3.89,34.72,2.06,52.26,2.35-20.82,1.31-41.64,2.61-62.47,3.92Z"/>
      <path class="st30" d="M1804.72,980.46c37.71-20.73,75.19-41.91,113.3-61.9,10.48-5.5,7.32,5.33,7.7,9.84,11.85,143.38,23.51,286.77,35.36,430.15.35,4.26,2.46,8.37,3.76,12.55,1.12,13.28,6.12,27.72,2.58,39.61-8.85,29.74-21.92,1.78-27.86-2.05-35.3-22.8-57.05-58.33-80.08-92.37-2.63-12.98-5.27-25.96-7.9-38.94-1.5-21.32-3-42.64-4.5-63.97-14.12-77.64-28.24-155.29-42.35-232.93Z"/>
      <path class="st3" d="M1867.27,582.39c63.47,40.06,83.14,95.88,55.42,157.32-32.55,72.14-104.39,119.38-157.36,103.47-18.13-16.73-23.74-39-27.49-62.1,2.54-20.81,5.08-41.62,7.62-62.43,18.97-64.76,39.69-127.95,121.81-136.26Z"/>
      <path class="st16" d="M1847.08,1213.39c1.5,21.32,3,42.64,4.5,63.97-68.01,13.9-132.25,37.56-191.53,74.04-6.8-1.25-13.67-3.86-20.4-3.55-85.18,3.92-168.14,20.05-249.13,46.55,2.38-14.4,4.76-28.79,7.14-43.19,144.25-64.06,293.53-111.7,449.41-137.82Z"/>
      <path class="st24" d="M1745.46,718.65c-2.54,20.81-5.08,41.62-7.62,62.44-19.25-19.88-34.4-42.03-38.71-70.17-2.58-13.02-5.16-26.03-7.74-39.05-2.62-11.72-5.24-23.43-7.85-35.15-15.65-42.39-28.11-86.32-47.57-126.88-53.19-110.82-149.28-170.14-261.01-208.94,4.03-22.88,30.6-7.86,39.08-23.24,192.04,71.73,294.31,214,324.67,412.9,1.45,9.48,4.46,18.72,6.75,28.08Z"/>
      <path class="st21" d="M3050.8,3199.3c-26.49-33.53,5.81-62.15,11.47-91.38,7.03-36.33,42.65-42.81,77.73-33.71-29.73,41.7-59.47,83.39-89.2,125.09Z"/>
      <path class="st21" d="M3195.98,2978.06c-1.89-16.79-26.56,11.02-26.3-14.28.22-21.88-1.64-43.85,20.46-55.61,12.52-6.66,26.4-2.93,35.82,9.7-9.99,20.06-19.99,40.13-29.98,60.19Z"/>
      <path class="st21" d="M3195.49,1608.96c-29.18-23.11-55.69-48.31-67.01-85.42,22.34,28.47,44.67,56.95,67.01,85.42Z"/>
      <path class="st21" d="M3230.66,1663.65c-15.52-10.11-24.99-24.07-27.12-42.69,9.04,14.23,18.08,28.46,27.12,42.69Z"/>
      <path class="st21" d="M3242.15,2881.7c-5.1-6.44-10.19-12.87-15.29-19.31,7.71.3,15.41.6,23.12.9-2.61,6.14-5.22,12.28-7.83,18.42Z"/>
      <path class="st21" d="M3246.04,1691.54c-16.08.16-19.21-6.79-10.98-19.99,3.66,6.66,7.32,13.32,10.98,19.99Z"/>
      <path class="st21" d="M3262.5,1722.42c-9.85-4.74-23.19-7.66-12.24-23.32,4.08,7.77,8.16,15.54,12.24,23.32Z"/>
      <path class="st12" d="M2058.64,1257.88c-17.53-.29-35.56,1.54-52.26-2.35-4.26-.99-8.02-21.1-5.51-30.72,5.81-22.23,22.8-6.54,33.83-5.61,183.62,15.47,361.37,53.25,524.82,142.84,25,13.7,48.88,29.43,73.29,44.22,183.1,130.48,279.89,315.94,335.93,527.35,64.96,333.87,35.27,655.74-123.25,960.78-39.3,75.64-88.52,145-142.29,211.09-179.16,205.83-397.19,336.95-675.81,351.61-258.81,7.74-474.02-94.28-656.7-269.08-254.51-243.51-387.83-547.75-433.21-893.6-2.27-17.28-2.64-34.81-3.89-52.23,1.77,4.75,3.8,9.42,5.27,14.26,40.62,133.85,121.54,235.27,253.66,283.43,112.91,41.16,224.05,6.42,327.64-41.15,288.38-132.43,467.62-450.47,436.73-766.86-11.25-115.27-49.54-152-160.49-171.79-28.45-5.08-107.29,36.75-77.67-56.14,48.07,5.4,96.08,12.99,144.54,3.85,45.41-5.51,90.69-11.57,132.82-31.07,79.77-21.96,153.17-57.04,218.65-107.78,16.35-12.67,37.6-23.53,29.92-51.23-8.31-29.99-29.82-47.08-58.21-50.83-42.27-5.58-85.18-6.24-127.82-9ZM2418.7,2947.02c-3.89,4.38-8.06,7.05-7.82,9.25.4,3.71,3.6,7.12,5.62,10.66,3.06-2.46,8.11-4.57,8.63-7.48.53-3.03-3.31-6.84-6.42-12.43ZM2180.04,3020.92c3.28-4,7.21-6.71,7.02-9.1-.22-2.76-3.86-7-6.41-7.3-2.36-.28-7.24,3.68-7.37,5.98-.16,2.77,3.52,5.77,6.76,10.42ZM2552.53,2492.77c-4.48-3.15-7.52-6.91-10.02-6.57-2.51.34-6.08,4.69-6.17,7.38-.07,2.07,4.46,5.88,7.08,6,2.45.11,5.08-3.6,9.11-6.81ZM2439.43,1596.86c-4.42-3.16-6.94-6.27-9.78-6.58-2.09-.23-6.78,3.8-6.48,4.85.9,3.17,3.23,7.49,5.83,8.16,2.23.57,5.6-3.25,10.44-6.43ZM2257,2336.23c-3.08,4.09-6.88,6.92-6.64,9.36.3,2.99,3.97,5.64,6.18,8.44,2.57-2.28,7.15-4.51,7.2-6.85.07-2.98-3.51-6.05-6.75-10.94ZM1783,2829.86c-3.58,4.12-7.62,6.73-7.6,9.32.02,2.6,4.06,5.17,6.34,7.76,2.46-2.26,6.53-4.27,6.93-6.85.39-2.53-2.94-5.64-5.67-10.23ZM2379.57,1991.75c-4.39-2.98-7.43-6.64-9.99-6.33-2.43.3-6.14,4.85-5.99,7.33.15,2.43,4.46,6.39,6.94,6.39,2.56,0,5.12-3.97,9.04-7.4ZM2146.75,2038.95c4.97,2.86,8.52,6.47,10.78,5.79,2.5-.75,4.62-5.29,5.21-8.49.22-1.18-4.68-4.89-6.72-4.52-2.81.51-5.13,3.79-9.27,7.22ZM2027.32,2157.16c3.08-4.63,6.73-7.73,6.4-10.33-.3-2.42-4.6-5.19-7.62-6.02-1.3-.36-5.69,4.08-5.41,5.83.49,3.1,3.46,5.81,6.63,10.52ZM2674.15,1622.59c-2.77,4.59-6.2,7.74-5.79,10.28.43,2.66,4.52,4.74,7.01,7.07,2.23-2.63,6.15-5.22,6.2-7.9.05-2.57-3.89-5.23-7.42-9.45ZM1298.6,2838.22c-3.58-2.67-6.4-6.13-7.93-5.63-3.02.98-5.33,4.16-7.94,6.43,2.34,2.37,4.78,6.7,7.01,6.59,2.66-.13,5.14-4.06,8.87-7.39ZM2349.92,1834.19c-3.19,4.64-6.17,7.24-6.6,10.21-.28,1.91,3.85,6.5,4.84,6.19,2.93-.91,7.02-3.4,7.4-5.79.41-2.58-2.86-5.74-5.64-10.61ZM2443.32,2751.87c-4.17-2.85-6.95-6.13-8.74-5.66-2.93.77-5.21,3.99-7.77,6.17,2.11,1.95,4.35,5.61,6.29,5.46,2.94-.23,5.66-3.12,10.23-5.97ZM2717,1672.84c-3.19,4.72-6.16,7.29-6.46,10.15-.22,2.11,3.04,4.58,4.75,6.89,2.61-2.1,6.79-3.84,7.38-6.41.54-2.36-2.79-5.6-5.67-10.63ZM2662.62,1518.48c-7.66-5.57-10.74-8.96-11.9-8.4-2.37,1.15-4.93,4.37-5.05,6.85-.09,1.81,3.47,5.15,5.66,5.37,2.82.29,5.89-1.84,11.29-3.82ZM1379.89,2966.92c-2.93,2.68-4.94,4.51-6.95,6.34,2.32,2.34,4.35,5.29,7.15,6.65.87.42,5.29-3.38,5.43-5.43.14-2.04-3.05-4.31-5.64-7.57ZM2428.57,2310.74c-3.17,3.64-6.34,5.68-6.32,7.67.03,2.36,2.82,4.68,4.42,7.02,2.1-1.79,5.44-3.31,5.93-5.47.48-2.1-1.97-4.86-4.03-9.22ZM2691.12,2482.67c-3.8-2.67-6.11-5.55-8.33-5.49-2.14.06-4.2,3.15-6.29,4.92,1.95,1.95,3.75,5.26,5.88,5.49,2.22.23,4.75-2.51,8.74-4.91ZM1446.92,2726.21c-3.1-2.89-5.09-6.19-7.12-6.22-1.97-.03-5.57,3.31-5.57,5.17,0,2.29,2.62,5.83,4.8,6.47,1.62.47,4.33-2.83,7.9-5.42ZM2239.65,1585.97c2.99-4.21,5.5-6.35,5.94-8.85.29-1.64-2.84-5.59-3.71-5.39-2.55.6-6.29,2.46-6.66,4.38-.44,2.29,2.14,5.15,4.43,9.86ZM1618.14,3139.62c-3.65-2.3-6.02-3.78-8.38-5.27-1.49,2.36-4.24,4.82-4.08,7.07.14,1.94,3.98,5.36,5.52,5.03,2.29-.49,3.99-3.71,6.94-6.82ZM2110.34,3192.02c-4.47-2.28-6.93-4.41-9.47-4.51-1.69-.07-3.51,2.75-5.26,4.27,1.9,2.16,3.61,5.77,5.76,6.06,2.11.28,4.66-2.84,8.98-5.81Z"/>
      <path class="st6" d="M1718.74,1503.94c-29.62,92.89,49.21,51.07,77.67,56.14,110.95,19.79,149.24,56.52,160.49,171.79,30.89,316.39-148.35,634.42-436.73,766.86-103.59,47.57-214.72,82.31-327.64,41.15-132.12-48.16-213.04-149.58-253.66-283.43-1.47-4.84-3.5-9.51-5.27-14.26-19.78-212.43-2.86-417.9,124.23-599.17,83.19-118.65,196.36-199.78,332.7-248.62,80.99-26.51,163.94-42.63,249.13-46.55,6.73-.31,13.6,2.3,20.4,3.55-24.86,30.05-109.29,36.39-42.62,102.93,27.44,27.38,64.03,40.19,101.31,49.6ZM1401.37,2078.38c48.39,16.98,91.84,2.51,130.2-25.57,115.27-84.41,168.96-204.54,191.37-341.31,6.3-38.42,11.36-78.23-35.46-98.35-19.45-3.92-13.63-12.49-5.56-23.77,5.59-7.81,7.91-17.96,11.69-27.06-9.35-1.2-18.9-4.28-28.01-3.29-41.14,4.45-82.6,7.72-123.13,15.61-196.18,38.23-365.87,115.59-449.67,314.51-34.8,82.61-7.31,178.23,60.68,216.84,69.12,39.24,209.29,23.64,247.9-27.6Z"/>
      <path class="st27" d="M1777.79,905.94c1.42,3.86,2.84,7.72,4.27,11.58-169.29,162-350.06,101.37-531.47,27.28-1.96-.8-3.2-3.4-4.77-5.16,2.99,0,6.03-.36,8.96.08,115.69,17.06,248.74-46.63,306.81-147.95,14.88-25.96,26.3-53.69,24.5-84.83,12.88,10.51,25.76,21.02,38.64,31.52l153.07,167.48Z"/>
      <path class="st2" d="M1374.96,300.91c111.73,38.8,207.82,98.12,261.01,208.94,19.47,40.56,31.92,84.49,47.57,126.88-39.59-2.92-57.67,35.37-89.75,46.83-53.41-41.65-106.81-83.3-160.22-124.95-16.12-61.79-40.1-120.01-78.12-171.85,9.9-20.66-.71-40.29-4.32-59.77-4.04-21.86-3.43-34.89,23.83-26.07Z"/>
      <path class="st46" d="M1433.57,558.61c53.41,41.65,106.81,83.3,160.22,124.95,7.79,6.53,15.59,13.06,23.38,19.59,3.91,5.2,7.83,10.39,11.74,15.59-1.4,6.57-2.8,13.15-4.2,19.72-12.88-10.51-25.76-21.02-38.64-31.52-24.85-19.49-49.7-38.98-74.54-58.47-10.46-7.74-20.92-15.49-31.37-23.23-55.86-33.96-111.73-67.92-167.59-101.89-15.73-7.71-31.46-15.42-47.19-23.13-27.27-10.5-54.53-21-81.8-31.5,6.56-2.63,13.12-5.27,19.68-7.9,70.46,12.65,133.71,43.26,195.2,78.27,11.7,6.5,23.4,13.01,35.11,19.51Z"/>
      <path class="st44" d="M1265.38,500.23c15.73,7.71,31.46,15.42,47.19,23.13-77.38,7.77-138.95,50.82-202.11,90.41-3.96,2.48-9.02,3.21-13.56,4.75,2.66-3.48,4.77-7.66,8.08-10.33,17.13-13.8,34.44-27.37,51.95-40.68,6.44-4.9,13.58-8.87,20.4-13.26-8.87,2.4-18.04,4.04-26.58,7.32-52.03,19.95-103.9,40.31-155.9,60.33-3.27,1.26-7.2.8-10.83,1.14,2.71-2.15,5.21-4.65,8.16-6.39,85.91-50.88,181.22-79.74,273.19-116.41Z"/>
      <path class="st49" d="M1480.17,625.25c10.46,7.74,20.92,15.49,31.37,23.23-65.4,11.95-126.68,36.38-188.23,60.54-39.64,15.56-80.66,27.59-121.17,40.89-3.6,1.18-7.95.1-11.95.07,3.19-1.56,6.33-3.26,9.59-4.66,93.45-40.04,186.92-80.05,280.38-120.07Z"/>
      <path class="st14" d="M1433.57,558.61c-11.7-6.5-23.41-13.01-35.11-19.51-21.83-52.73-43.68-105.44-65.46-158.2-3.57-8.65-6.78-17.46-10.16-26.19,7.5,6.87,15.12,13.61,22.45,20.65,3.66,3.52,6.79,7.58,10.15,11.4,38.03,51.83,62.01,110.05,78.12,171.85Z"/>
      <path class="st23" d="M1164.06,449.28c-28.88-52.22-74.52-83.04-129.69-101.76-3.5-1.19-6.74-3.18-10.1-4.8,3.79-.96,7.78-3.23,11.33-2.68,69.75,10.83,116.18,52.39,147.97,113.03-6.5-1.26-13.01-2.53-19.51-3.79Z"/>
      <path class="st50" d="M1164.06,449.28c6.5,1.26,13.01,2.53,19.51,3.79,6.57,2.58,13.13,5.17,19.7,7.75-6.56,2.63-13.12,5.27-19.68,7.9-33.31-7.67-66.61-15.4-99.95-22.97-10.5-2.38-21.1-4.33-31.66-6.48,11.85-.17,23.82-1.52,35.52-.27,25.59,2.73,51.05,6.77,76.56,10.28Z"/>
      <path class="st21" d="M2873.98,3087.52c4.39,3.19,7.99,5.81,11.59,8.43-4.76,2.36-9.44,6.3-14.32,6.59-4.01.23-8.28-3.88-12.43-6.07,4.59-2.71,9.17-5.42,15.16-8.95Z"/>
      <path class="st7" d="M2058.64,1257.88c42.64,2.75,85.55,3.42,127.82,8.99,28.39,3.74,49.9,20.83,58.21,50.83,7.68,27.7-13.57,38.56-29.92,51.23-65.48,50.74-138.88,85.83-218.65,107.78,0-33.9,0-67.8,0-101.71.02-37.74.05-75.47.07-113.21,20.82-1.31,41.65-2.61,62.47-3.92Z"/>
      <path class="st32" d="M1996.1,1375.01c0,33.9,0,67.8,0,101.71-42.14,19.5-87.42,25.56-132.82,31.07-1.27-63.83-2.53-127.66-3.8-191.49,23.03,34.05,44.78,69.57,80.08,92.37,5.94,3.84,19.01,31.8,27.86,2.05,3.54-11.9-1.47-26.33-2.58-39.61,14.06-27.93,19.82,10.84,31.27,3.9Z"/>
      <path class="st42" d="M1624.72,738.47c1.4-6.57,2.8-13.15,4.2-19.72,9.26,8.91,16.85,3.3,27.04-.07,13.49-4.46,25.27-27.28,43.18-7.75,4.31,28.13,19.46,50.28,38.71,70.17,3.75,23.1,9.36,45.37,27.49,62.09,4.15,20.92,8.3,41.84,12.46,62.76-51.02-55.83-102.05-111.65-153.07-167.48Z"/>
      <path class="st11" d="M1859.48,1316.3c1.27,63.83,2.53,127.66,3.8,191.49-48.46,9.14-96.47,1.55-144.54-3.85-37.28-9.42-73.88-22.22-101.31-49.6-66.66-66.54,17.76-72.88,42.62-102.93,59.28-36.48,123.52-60.14,191.53-74.04,2.63,12.98,5.27,25.96,7.9,38.94Z"/>
      <path class="st28" d="M1617.17,703.15c-7.79-6.53-15.59-13.06-23.38-19.59,32.08-11.46,50.16-49.75,89.75-46.83,2.62,11.72,5.24,23.43,7.85,35.15-33.5-10.37-46.67,27.53-74.22,31.28Z"/>
      <path class="st31" d="M1617.17,703.15c27.55-3.75,40.72-41.65,74.22-31.28,2.58,13.02,5.16,26.03,7.74,39.05-17.92-19.53-29.69,3.29-43.18,7.75-10.18,3.36-17.78,8.98-27.04.07-3.91-5.2-7.83-10.39-11.74-15.59Z"/>
      <path class="st20" d="M2418.7,2947.02c3.11,5.59,6.96,9.4,6.42,12.43-.51,2.91-5.57,5.02-8.63,7.48-2.02-3.54-5.22-6.95-5.62-10.66-.24-2.2,3.93-4.88,7.82-9.25Z"/>
      <path class="st17" d="M2180.04,3020.92c-3.24-4.66-6.91-7.65-6.76-10.42.13-2.3,5.01-6.25,7.37-5.98,2.54.3,6.18,4.54,6.41,7.3.19,2.38-3.74,5.1-7.02,9.1Z"/>
      <path class="st25" d="M2552.53,2492.77c-4.03,3.2-6.66,6.92-9.11,6.81-2.62-.12-7.15-3.93-7.08-6,.09-2.7,3.66-7.04,6.17-7.38,2.49-.33,5.53,3.43,10.02,6.57Z"/>
      <path class="st38" d="M2439.43,1596.86c-4.84,3.18-8.2,7-10.44,6.43-2.6-.67-4.93-4.98-5.83-8.16-.3-1.05,4.39-5.08,6.48-4.85,2.84.31,5.36,3.42,9.78,6.58Z"/>
      <path class="st13" d="M2257,2336.23c3.24,4.89,6.82,7.96,6.75,10.94-.06,2.34-4.64,4.57-7.2,6.85-2.21-2.8-5.88-5.45-6.18-8.44-.24-2.43,3.55-5.27,6.64-9.36Z"/>
      <path class="st8" d="M1783,2829.86c2.73,4.59,6.07,7.7,5.67,10.23-.4,2.58-4.47,4.59-6.93,6.85-2.28-2.59-6.32-5.16-6.34-7.76-.02-2.58,4.02-5.19,7.6-9.32Z"/>
      <path class="st26" d="M2379.57,1991.75c-3.92,3.43-6.48,7.4-9.04,7.4-2.48,0-6.8-3.97-6.94-6.39-.15-2.48,3.56-7.04,5.99-7.33,2.56-.31,5.6,3.34,9.99,6.33Z"/>
      <path class="st43" d="M2146.75,2038.95c4.15-3.43,6.46-6.71,9.27-7.22,2.04-.37,6.94,3.34,6.72,4.52-.59,3.2-2.71,7.73-5.21,8.49-2.26.68-5.81-2.93-10.78-5.79Z"/>
      <path class="st33" d="M2027.32,2157.16c-3.17-4.71-6.15-7.42-6.63-10.52-.27-1.75,4.11-6.19,5.41-5.83,3.03.83,7.32,3.6,7.62,6.02.32,2.6-3.32,5.7-6.4,10.33Z"/>
      <path class="st41" d="M2674.15,1622.59c3.53,4.23,7.47,6.88,7.42,9.45-.05,2.67-3.97,5.27-6.2,7.9-2.49-2.33-6.59-4.41-7.01-7.07-.4-2.54,3.02-5.69,5.79-10.28Z"/>
      <path class="st34" d="M1298.6,2838.22c-3.73,3.33-6.21,7.26-8.87,7.39-2.22.11-4.66-4.23-7.01-6.59,2.61-2.27,4.92-5.45,7.94-6.43,1.54-.5,4.36,2.96,7.93,5.63Z"/>
      <path class="st22" d="M2349.92,1834.19c2.78,4.87,6.05,8.03,5.64,10.61-.38,2.39-4.47,4.87-7.4,5.79-1,.31-5.12-4.27-4.84-6.19.43-2.97,3.41-5.58,6.6-10.21Z"/>
      <path class="st47" d="M2443.32,2751.87c-4.56,2.85-7.29,5.73-10.23,5.97-1.94.15-4.18-3.5-6.29-5.46,2.56-2.18,4.84-5.4,7.77-6.17,1.79-.47,4.57,2.81,8.74,5.66Z"/>
      <path class="st36" d="M2717,1672.84c2.87,5.03,6.2,8.27,5.67,10.63-.58,2.56-4.76,4.31-7.38,6.41-1.71-2.31-4.97-4.78-4.75-6.89.3-2.85,3.26-5.42,6.46-10.15Z"/>
      <path class="st8" d="M2662.62,1518.48c-5.41,1.98-8.48,4.12-11.29,3.82-2.19-.23-5.75-3.57-5.66-5.37.12-2.48,2.69-5.7,5.05-6.85,1.16-.56,4.24,2.84,11.9,8.4Z"/>
      <path class="st19" d="M1379.89,2966.92c2.59,3.25,5.78,5.53,5.64,7.57-.14,2.05-4.57,5.85-5.43,5.43-2.8-1.36-4.83-4.31-7.15-6.65,2.01-1.83,4.02-3.67,6.95-6.34Z"/>
      <path class="st35" d="M2428.57,2310.74c2.06,4.36,4.51,7.12,4.03,9.22-.49,2.16-3.84,3.67-5.93,5.47-1.59-2.34-4.38-4.66-4.42-7.02-.03-1.99,3.15-4.03,6.32-7.67Z"/>
      <path class="st29" d="M2691.12,2482.67c-3.99,2.4-6.52,5.14-8.74,4.91-2.13-.22-3.93-3.53-5.88-5.49,2.09-1.76,4.15-4.86,6.29-4.92,2.22-.06,4.53,2.82,8.33,5.49Z"/>
      <path class="st9" d="M1446.92,2726.21c-3.57,2.6-6.28,5.89-7.9,5.42-2.18-.63-4.8-4.18-4.8-6.47,0-1.86,3.61-5.2,5.57-5.17,2.04.03,4.02,3.33,7.12,6.22Z"/>
      <path class="st5" d="M2239.65,1585.97c-2.29-4.71-4.87-7.58-4.43-9.86.37-1.92,4.11-3.78,6.66-4.38.87-.2,4,3.75,3.71,5.39-.44,2.5-2.94,4.64-5.94,8.85Z"/>
      <path class="st1" d="M1618.14,3139.62c-2.95,3.11-4.65,6.33-6.94,6.82-1.54.33-5.37-3.09-5.52-5.03-.17-2.24,2.59-4.7,4.08-7.07,2.36,1.49,4.72,2.97,8.38,5.27Z"/>
      <path class="st51" d="M2110.34,3192.02c-4.32,2.98-6.87,6.09-8.98,5.81-2.15-.28-3.86-3.9-5.76-6.06,1.76-1.53,3.57-4.34,5.26-4.27,2.54.11,5,2.24,9.47,4.51Z"/>
      <path class="st39" d="M1401.37,2078.38c-38.6,51.24-178.77,66.84-247.9,27.6-67.99-38.6-95.48-134.23-60.68-216.84,83.8-198.92,253.49-276.28,449.67-314.51,40.53-7.9,81.99-11.17,123.13-15.61,9.11-.98,18.66,2.09,28.01,3.29-3.78,9.1-6.11,19.25-11.69,27.06-8.07,11.29-13.89,19.86,5.56,23.78-22.04-2.82-42.61,2.12-62.08,12.15-115.23,59.33-201.72,146.48-248.26,268.19-24.41,63.84-42.25,131.02,24.24,184.9Z"/>
      <path class="st37" d="M1401.37,2078.38c-66.49-53.87-48.65-121.06-24.24-184.9,46.54-121.71,133.03-208.86,248.26-268.19,19.47-10.02,40.05-14.97,62.08-12.15,46.82,20.12,41.76,59.93,35.46,98.35-22.42,136.77-76.1,256.9-191.37,341.31-38.35,28.08-81.8,42.55-130.2,25.57Z"/>
    </g>
  </g>
</svg>